<mxfile host="app.diagrams.net" modified="2023-05-29T16:01:57.693Z" agent="Mozilla/5.0 (Windows NT 10.0; Win64; x64) AppleWebKit/537.36 (KHTML, like Gecko) Chrome/113.0.0.0 Safari/537.36" etag="u9TlDU1NRU6_QuQDZ1GJ" version="21.3.5" type="device">
  <diagram id="C5RBs43oDa-KdzZeNtuy" name="Page-1">
    <mxGraphModel dx="2670" dy="1916" grid="1" gridSize="10" guides="1" tooltips="1" connect="1" arrows="1" fold="1" page="1" pageScale="1" pageWidth="827" pageHeight="1169" math="0" shadow="0">
      <root>
        <mxCell id="WIyWlLk6GJQsqaUBKTNV-0" />
        <mxCell id="WIyWlLk6GJQsqaUBKTNV-1" parent="WIyWlLk6GJQsqaUBKTNV-0" />
        <mxCell id="zkfFHV4jXpPFQw0GAbJ--0" value="Base" style="swimlane;fontStyle=2;align=center;verticalAlign=top;childLayout=stackLayout;horizontal=1;startSize=26;horizontalStack=0;resizeParent=1;resizeLast=0;collapsible=1;marginBottom=0;rounded=0;shadow=0;strokeWidth=1;" parent="WIyWlLk6GJQsqaUBKTNV-1" vertex="1">
          <mxGeometry x="100" y="-309" width="210" height="170" as="geometry">
            <mxRectangle x="230" y="140" width="160" height="26" as="alternateBounds" />
          </mxGeometry>
        </mxCell>
        <mxCell id="zkfFHV4jXpPFQw0GAbJ--3" value="-bool visible&#xa;-int X&#xa;-int Y&#xa;-double size&#xa;" style="text;align=left;verticalAlign=top;spacingLeft=4;spacingRight=4;overflow=hidden;rotatable=0;points=[[0,0.5],[1,0.5]];portConstraint=eastwest;rounded=0;shadow=0;html=0;" parent="zkfFHV4jXpPFQw0GAbJ--0" vertex="1">
          <mxGeometry y="26" width="210" height="84" as="geometry" />
        </mxCell>
        <mxCell id="zkfFHV4jXpPFQw0GAbJ--4" value="" style="line;html=1;strokeWidth=1;align=left;verticalAlign=middle;spacingTop=-1;spacingLeft=3;spacingRight=3;rotatable=0;labelPosition=right;points=[];portConstraint=eastwest;" parent="zkfFHV4jXpPFQw0GAbJ--0" vertex="1">
          <mxGeometry y="110" width="210" height="6" as="geometry" />
        </mxCell>
        <mxCell id="zkfFHV4jXpPFQw0GAbJ--5" value="+virtual ostream &amp;Print(ostream&amp;) = 0Â &#xa;+Base()&#xa;+Base(bool, int, int, double)&#xa;" style="text;align=left;verticalAlign=top;spacingLeft=4;spacingRight=4;overflow=hidden;rotatable=0;points=[[0,0.5],[1,0.5]];portConstraint=eastwest;" parent="zkfFHV4jXpPFQw0GAbJ--0" vertex="1">
          <mxGeometry y="116" width="210" height="54" as="geometry" />
        </mxCell>
        <mxCell id="zkfFHV4jXpPFQw0GAbJ--6" value="Ellipse" style="swimlane;fontStyle=0;align=center;verticalAlign=top;childLayout=stackLayout;horizontal=1;startSize=26;horizontalStack=0;resizeParent=1;resizeLast=0;collapsible=1;marginBottom=0;rounded=0;shadow=0;strokeWidth=1;" parent="WIyWlLk6GJQsqaUBKTNV-1" vertex="1">
          <mxGeometry x="-300" y="160" width="320" height="190" as="geometry">
            <mxRectangle x="130" y="380" width="160" height="26" as="alternateBounds" />
          </mxGeometry>
        </mxCell>
        <mxCell id="zkfFHV4jXpPFQw0GAbJ--8" value="-char* FillColor&#xa;-char* BorderColor" style="text;align=left;verticalAlign=top;spacingLeft=4;spacingRight=4;overflow=hidden;rotatable=0;points=[[0,0.5],[1,0.5]];portConstraint=eastwest;rounded=0;shadow=0;html=0;" parent="zkfFHV4jXpPFQw0GAbJ--6" vertex="1">
          <mxGeometry y="26" width="320" height="34" as="geometry" />
        </mxCell>
        <mxCell id="zkfFHV4jXpPFQw0GAbJ--9" value="" style="line;html=1;strokeWidth=1;align=left;verticalAlign=middle;spacingTop=-1;spacingLeft=3;spacingRight=3;rotatable=0;labelPosition=right;points=[];portConstraint=eastwest;" parent="zkfFHV4jXpPFQw0GAbJ--6" vertex="1">
          <mxGeometry y="60" width="320" height="8" as="geometry" />
        </mxCell>
        <mxCell id="zkfFHV4jXpPFQw0GAbJ--11" value="+virtual ostream &amp;Print(ostream&amp;) final&#xa;+Ellipse()&#xa;+Ellipse(bool, int, int, double, const char*, const char*)&#xa;+Ellipse(const Ellipse&amp;)&#xa;+Ellipse(Ellipse&amp;&amp;) noexcept&#xa;+Ellipse&amp; operator=(const Ellipse&amp;)&#xa;+Ellipse&amp; operator=(Ellipse&amp;&amp;) noexcept&#xa;+~Ellipse()" style="text;align=left;verticalAlign=top;spacingLeft=4;spacingRight=4;overflow=hidden;rotatable=0;points=[[0,0.5],[1,0.5]];portConstraint=eastwest;" parent="zkfFHV4jXpPFQw0GAbJ--6" vertex="1">
          <mxGeometry y="68" width="320" height="122" as="geometry" />
        </mxCell>
        <mxCell id="m9CLLBIE4FV2ket7XEJQ-1" value="HyperlingLabel" style="swimlane;fontStyle=0;align=center;verticalAlign=top;childLayout=stackLayout;horizontal=1;startSize=26;horizontalStack=0;resizeParent=1;resizeLast=0;collapsible=1;marginBottom=0;rounded=0;shadow=0;strokeWidth=1;" parent="WIyWlLk6GJQsqaUBKTNV-1" vertex="1">
          <mxGeometry x="30" y="590" width="440" height="190" as="geometry">
            <mxRectangle x="130" y="380" width="160" height="26" as="alternateBounds" />
          </mxGeometry>
        </mxCell>
        <mxCell id="m9CLLBIE4FV2ket7XEJQ-3" value="-char* URL&#xa;&#xa;" style="text;align=left;verticalAlign=top;spacingLeft=4;spacingRight=4;overflow=hidden;rotatable=0;points=[[0,0.5],[1,0.5]];portConstraint=eastwest;rounded=0;shadow=0;html=0;" parent="m9CLLBIE4FV2ket7XEJQ-1" vertex="1">
          <mxGeometry y="26" width="440" height="34" as="geometry" />
        </mxCell>
        <mxCell id="m9CLLBIE4FV2ket7XEJQ-4" value="" style="line;html=1;strokeWidth=1;align=left;verticalAlign=middle;spacingTop=-1;spacingLeft=3;spacingRight=3;rotatable=0;labelPosition=right;points=[];portConstraint=eastwest;" parent="m9CLLBIE4FV2ket7XEJQ-1" vertex="1">
          <mxGeometry y="60" width="440" height="8" as="geometry" />
        </mxCell>
        <mxCell id="m9CLLBIE4FV2ket7XEJQ-6" value="+virtual ostream &amp;Print(ostream&amp;) final&#xa;+HyperlingLabel()&#xa;+HyperlingLabel(bool, int, int, double, const char*, const char*, const char*)&#xa;+HyperlingLabel(const HyperlingLabel&amp;)&#xa;+HyperlingLabel(HyperlingLabel&amp;&amp;) noexcept&#xa;+HyperlingLabel&amp; operator=(const HyperlingLabel&amp;)&#xa;+HyperlingLabel&amp; operator=(HyperlingLabel&amp;&amp;) noexcept&#xa;+~HyperlingLabel()" style="text;align=left;verticalAlign=top;spacingLeft=4;spacingRight=4;overflow=hidden;rotatable=0;points=[[0,0.5],[1,0.5]];portConstraint=eastwest;" parent="m9CLLBIE4FV2ket7XEJQ-1" vertex="1">
          <mxGeometry y="68" width="440" height="122" as="geometry" />
        </mxCell>
        <mxCell id="m9CLLBIE4FV2ket7XEJQ-8" value="TextBox" style="swimlane;fontStyle=0;align=center;verticalAlign=top;childLayout=stackLayout;horizontal=1;startSize=26;horizontalStack=0;resizeParent=1;resizeLast=0;collapsible=1;marginBottom=0;rounded=0;shadow=0;strokeWidth=1;" parent="WIyWlLk6GJQsqaUBKTNV-1" vertex="1">
          <mxGeometry x="640" y="505" width="340" height="135" as="geometry">
            <mxRectangle x="130" y="380" width="160" height="26" as="alternateBounds" />
          </mxGeometry>
        </mxCell>
        <mxCell id="m9CLLBIE4FV2ket7XEJQ-9" value="-bool ReadOnly&#xa;" style="text;align=left;verticalAlign=top;spacingLeft=4;spacingRight=4;overflow=hidden;rotatable=0;points=[[0,0.5],[1,0.5]];portConstraint=eastwest;" parent="m9CLLBIE4FV2ket7XEJQ-8" vertex="1">
          <mxGeometry y="26" width="340" height="34" as="geometry" />
        </mxCell>
        <mxCell id="m9CLLBIE4FV2ket7XEJQ-11" value="" style="line;html=1;strokeWidth=1;align=left;verticalAlign=middle;spacingTop=-1;spacingLeft=3;spacingRight=3;rotatable=0;labelPosition=right;points=[];portConstraint=eastwest;" parent="m9CLLBIE4FV2ket7XEJQ-8" vertex="1">
          <mxGeometry y="60" width="340" height="8" as="geometry" />
        </mxCell>
        <mxCell id="m9CLLBIE4FV2ket7XEJQ-13" value="+virtual ostream &amp;Print(ostream&amp;) final&#xa;+TextBox()&#xa;+TextBox(bool, int, int, double, const char*, const char*, bool)&#xa;" style="text;align=left;verticalAlign=top;spacingLeft=4;spacingRight=4;overflow=hidden;rotatable=0;points=[[0,0.5],[1,0.5]];portConstraint=eastwest;" parent="m9CLLBIE4FV2ket7XEJQ-8" vertex="1">
          <mxGeometry y="68" width="340" height="62" as="geometry" />
        </mxCell>
        <mxCell id="m9CLLBIE4FV2ket7XEJQ-14" value="Button" style="swimlane;fontStyle=0;align=center;verticalAlign=top;childLayout=stackLayout;horizontal=1;startSize=26;horizontalStack=0;resizeParent=1;resizeLast=0;collapsible=1;marginBottom=0;rounded=0;shadow=0;strokeWidth=1;" parent="WIyWlLk6GJQsqaUBKTNV-1" vertex="1">
          <mxGeometry x="640" y="250" width="320" height="190" as="geometry">
            <mxRectangle x="130" y="380" width="160" height="26" as="alternateBounds" />
          </mxGeometry>
        </mxCell>
        <mxCell id="m9CLLBIE4FV2ket7XEJQ-15" value="-char* ToolTipText" style="text;align=left;verticalAlign=top;spacingLeft=4;spacingRight=4;overflow=hidden;rotatable=0;points=[[0,0.5],[1,0.5]];portConstraint=eastwest;" parent="m9CLLBIE4FV2ket7XEJQ-14" vertex="1">
          <mxGeometry y="26" width="320" height="26" as="geometry" />
        </mxCell>
        <mxCell id="m9CLLBIE4FV2ket7XEJQ-17" value="" style="line;html=1;strokeWidth=1;align=left;verticalAlign=middle;spacingTop=-1;spacingLeft=3;spacingRight=3;rotatable=0;labelPosition=right;points=[];portConstraint=eastwest;" parent="m9CLLBIE4FV2ket7XEJQ-14" vertex="1">
          <mxGeometry y="52" width="320" height="8" as="geometry" />
        </mxCell>
        <mxCell id="m9CLLBIE4FV2ket7XEJQ-19" value="+virtual ostream &amp;Print(ostream&amp;) override&#xa;+Button()&#xa;+Button(bool, int, int, double, const char*, const char*)&#xa;+Button(const Button&amp;)&#xa;+Button(Button&amp;&amp;) noexcept&#xa;+Button&amp; operator=(const Button&amp;)&#xa;+Button&amp; operator=(Button&amp;&amp;) noexcept&#xa;+~Button()" style="text;align=left;verticalAlign=top;spacingLeft=4;spacingRight=4;overflow=hidden;rotatable=0;points=[[0,0.5],[1,0.5]];portConstraint=eastwest;" parent="m9CLLBIE4FV2ket7XEJQ-14" vertex="1">
          <mxGeometry y="60" width="320" height="130" as="geometry" />
        </mxCell>
        <mxCell id="m9CLLBIE4FV2ket7XEJQ-41" value="" style="edgeStyle=none;orthogonalLoop=1;jettySize=auto;html=1;rounded=0;endArrow=block;endFill=0;startArrow=none;startFill=0;exitX=0.5;exitY=0;exitDx=0;exitDy=0;entryX=0.53;entryY=1.004;entryDx=0;entryDy=0;entryPerimeter=0;" parent="WIyWlLk6GJQsqaUBKTNV-1" source="m9CLLBIE4FV2ket7XEJQ-8" target="m9CLLBIE4FV2ket7XEJQ-19" edge="1">
          <mxGeometry width="80" relative="1" as="geometry">
            <mxPoint x="820" y="555" as="sourcePoint" />
            <mxPoint x="800" y="460" as="targetPoint" />
            <Array as="points" />
          </mxGeometry>
        </mxCell>
        <mxCell id="m9CLLBIE4FV2ket7XEJQ-43" value="" style="edgeStyle=none;orthogonalLoop=1;jettySize=auto;html=1;rounded=0;exitX=0.5;exitY=0;exitDx=0;exitDy=0;endArrow=none;endFill=0;" parent="WIyWlLk6GJQsqaUBKTNV-1" source="m9CLLBIE4FV2ket7XEJQ-14" edge="1">
          <mxGeometry width="80" relative="1" as="geometry">
            <mxPoint x="490" y="195" as="sourcePoint" />
            <mxPoint x="800" y="200" as="targetPoint" />
            <Array as="points" />
          </mxGeometry>
        </mxCell>
        <mxCell id="m9CLLBIE4FV2ket7XEJQ-44" value="" style="edgeStyle=none;orthogonalLoop=1;jettySize=auto;html=1;rounded=0;exitX=0.5;exitY=0;exitDx=0;exitDy=0;endArrow=none;endFill=0;" parent="WIyWlLk6GJQsqaUBKTNV-1" source="zkfFHV4jXpPFQw0GAbJ--6" edge="1">
          <mxGeometry width="80" relative="1" as="geometry">
            <mxPoint x="-50" y="130" as="sourcePoint" />
            <mxPoint x="-140" y="-80" as="targetPoint" />
            <Array as="points" />
          </mxGeometry>
        </mxCell>
        <mxCell id="m9CLLBIE4FV2ket7XEJQ-45" value="" style="edgeStyle=none;orthogonalLoop=1;jettySize=auto;html=1;rounded=0;endArrow=none;endFill=0;" parent="WIyWlLk6GJQsqaUBKTNV-1" edge="1">
          <mxGeometry width="80" relative="1" as="geometry">
            <mxPoint x="250" y="200" as="sourcePoint" />
            <mxPoint x="800" y="200" as="targetPoint" />
            <Array as="points" />
          </mxGeometry>
        </mxCell>
        <mxCell id="uvJdbYq3CivriznMgJNv-0" value="Text&#xa;" style="swimlane;fontStyle=2;align=center;verticalAlign=top;childLayout=stackLayout;horizontal=1;startSize=26;horizontalStack=0;resizeParent=1;resizeLast=0;collapsible=1;marginBottom=0;rounded=0;shadow=0;strokeWidth=1;" parent="WIyWlLk6GJQsqaUBKTNV-1" vertex="1">
          <mxGeometry x="370" y="-30" width="240" height="190" as="geometry">
            <mxRectangle x="230" y="140" width="160" height="26" as="alternateBounds" />
          </mxGeometry>
        </mxCell>
        <mxCell id="uvJdbYq3CivriznMgJNv-1" value="-char* text" style="text;align=left;verticalAlign=top;spacingLeft=4;spacingRight=4;overflow=hidden;rotatable=0;points=[[0,0.5],[1,0.5]];portConstraint=eastwest;rounded=0;shadow=0;html=0;" parent="uvJdbYq3CivriznMgJNv-0" vertex="1">
          <mxGeometry y="26" width="240" height="34" as="geometry" />
        </mxCell>
        <mxCell id="uvJdbYq3CivriznMgJNv-2" value="" style="line;html=1;strokeWidth=1;align=left;verticalAlign=middle;spacingTop=-1;spacingLeft=3;spacingRight=3;rotatable=0;labelPosition=right;points=[];portConstraint=eastwest;" parent="uvJdbYq3CivriznMgJNv-0" vertex="1">
          <mxGeometry y="60" width="240" height="6" as="geometry" />
        </mxCell>
        <mxCell id="uvJdbYq3CivriznMgJNv-3" value="+virtual ostream &amp;Print(ostream&amp;)Â override&#xa;+Text()&#xa;+Text(bool, int, int, double, const char*)&#xa;+Text(const Text&amp;)&#xa;+Text(Text&amp;&amp;) noexcept&#xa;+Text&amp; operator=(const Text&amp;)&#xa;+Text&amp; operator=(Text&amp;&amp;) noexcept&#xa;+~Text()" style="text;align=left;verticalAlign=top;spacingLeft=4;spacingRight=4;overflow=hidden;rotatable=0;points=[[0,0.5],[1,0.5]];portConstraint=eastwest;" parent="uvJdbYq3CivriznMgJNv-0" vertex="1">
          <mxGeometry y="66" width="240" height="124" as="geometry" />
        </mxCell>
        <mxCell id="uvJdbYq3CivriznMgJNv-5" value="" style="edgeStyle=none;orthogonalLoop=1;jettySize=auto;html=1;rounded=0;startArrow=none;startFill=0;endArrow=none;endFill=0;" parent="WIyWlLk6GJQsqaUBKTNV-1" edge="1">
          <mxGeometry width="80" relative="1" as="geometry">
            <mxPoint x="-140" y="-80" as="sourcePoint" />
            <mxPoint x="300" y="-80" as="targetPoint" />
            <Array as="points" />
          </mxGeometry>
        </mxCell>
        <mxCell id="uvJdbYq3CivriznMgJNv-7" value="" style="edgeStyle=none;orthogonalLoop=1;jettySize=auto;html=1;rounded=0;exitX=0.458;exitY=0.002;exitDx=0;exitDy=0;startArrow=none;startFill=0;endArrow=none;endFill=0;exitPerimeter=0;" parent="WIyWlLk6GJQsqaUBKTNV-1" source="uvJdbYq3CivriznMgJNv-0" edge="1">
          <mxGeometry width="80" relative="1" as="geometry">
            <mxPoint x="470" y="-70" as="sourcePoint" />
            <mxPoint x="480" y="-80" as="targetPoint" />
            <Array as="points" />
          </mxGeometry>
        </mxCell>
        <mxCell id="uvJdbYq3CivriznMgJNv-8" value="" style="edgeStyle=none;orthogonalLoop=1;jettySize=auto;html=1;rounded=0;startArrow=none;startFill=0;endArrow=none;endFill=0;" parent="WIyWlLk6GJQsqaUBKTNV-1" edge="1">
          <mxGeometry width="80" relative="1" as="geometry">
            <mxPoint x="480" y="-80" as="sourcePoint" />
            <mxPoint x="300" y="-80" as="targetPoint" />
            <Array as="points" />
          </mxGeometry>
        </mxCell>
        <mxCell id="uvJdbYq3CivriznMgJNv-9" value="" style="edgeStyle=none;orthogonalLoop=1;jettySize=auto;html=1;rounded=0;entryX=0.474;entryY=0.998;entryDx=0;entryDy=0;entryPerimeter=0;endArrow=block;endFill=0;" parent="WIyWlLk6GJQsqaUBKTNV-1" target="zkfFHV4jXpPFQw0GAbJ--5" edge="1">
          <mxGeometry width="80" relative="1" as="geometry">
            <mxPoint x="200" y="-80" as="sourcePoint" />
            <mxPoint x="340" y="-10" as="targetPoint" />
            <Array as="points" />
          </mxGeometry>
        </mxCell>
        <mxCell id="uvJdbYq3CivriznMgJNv-11" value="ColorC" style="swimlane;fontStyle=0;align=center;verticalAlign=top;childLayout=stackLayout;horizontal=1;startSize=26;horizontalStack=0;resizeParent=1;resizeLast=0;collapsible=1;marginBottom=0;rounded=0;shadow=0;strokeWidth=1;" parent="WIyWlLk6GJQsqaUBKTNV-1" vertex="1">
          <mxGeometry x="60" y="335" width="380" height="180" as="geometry">
            <mxRectangle x="130" y="380" width="160" height="26" as="alternateBounds" />
          </mxGeometry>
        </mxCell>
        <mxCell id="uvJdbYq3CivriznMgJNv-12" value="-char* Color&#xa;" style="text;align=left;verticalAlign=top;spacingLeft=4;spacingRight=4;overflow=hidden;rotatable=0;points=[[0,0.5],[1,0.5]];portConstraint=eastwest;rounded=0;shadow=0;html=0;" parent="uvJdbYq3CivriznMgJNv-11" vertex="1">
          <mxGeometry y="26" width="380" height="24" as="geometry" />
        </mxCell>
        <mxCell id="uvJdbYq3CivriznMgJNv-13" value="" style="line;html=1;strokeWidth=1;align=left;verticalAlign=middle;spacingTop=-1;spacingLeft=3;spacingRight=3;rotatable=0;labelPosition=right;points=[];portConstraint=eastwest;" parent="uvJdbYq3CivriznMgJNv-11" vertex="1">
          <mxGeometry y="50" width="380" height="8" as="geometry" />
        </mxCell>
        <mxCell id="uvJdbYq3CivriznMgJNv-14" value="+virtual ostream &amp;Print(ostream&amp;) override&#xa;+ColorC()&#xa;+ColorC(bool, int, int, double, const char*, const char*,)&#xa;+ColorC(const ColorC&amp;)&#xa;+ColorC(ColorC&amp;&amp;) noexcept&#xa;+ColorC&amp; operator=(const ColorC&amp;)&#xa;+ColorC&amp; operator=(ColorC&amp;&amp;) noexcept&#xa;+~ColorC()" style="text;align=left;verticalAlign=top;spacingLeft=4;spacingRight=4;overflow=hidden;rotatable=0;points=[[0,0.5],[1,0.5]];portConstraint=eastwest;" parent="uvJdbYq3CivriznMgJNv-11" vertex="1">
          <mxGeometry y="58" width="380" height="116" as="geometry" />
        </mxCell>
        <mxCell id="uvJdbYq3CivriznMgJNv-17" value="" style="edgeStyle=none;orthogonalLoop=1;jettySize=auto;html=1;rounded=0;endArrow=none;endFill=0;exitX=0.5;exitY=0;exitDx=0;exitDy=0;" parent="WIyWlLk6GJQsqaUBKTNV-1" source="uvJdbYq3CivriznMgJNv-11" edge="1">
          <mxGeometry width="80" relative="1" as="geometry">
            <mxPoint x="310.57000000000016" y="335.17999999999984" as="sourcePoint" />
            <mxPoint x="250" y="200" as="targetPoint" />
            <Array as="points" />
          </mxGeometry>
        </mxCell>
        <mxCell id="cQJ7UGHOVMen4z-y_3H2-6" value="" style="edgeStyle=none;orthogonalLoop=1;jettySize=auto;html=1;rounded=0;exitX=0.5;exitY=0;exitDx=0;exitDy=0;endArrow=block;endFill=0;entryX=0.5;entryY=1;entryDx=0;entryDy=0;" parent="WIyWlLk6GJQsqaUBKTNV-1" source="m9CLLBIE4FV2ket7XEJQ-1" edge="1" target="uvJdbYq3CivriznMgJNv-11">
          <mxGeometry width="80" relative="1" as="geometry">
            <mxPoint x="310" y="595" as="sourcePoint" />
            <mxPoint x="250" y="515" as="targetPoint" />
            <Array as="points" />
          </mxGeometry>
        </mxCell>
        <mxCell id="cQJ7UGHOVMen4z-y_3H2-7" value="" style="edgeStyle=none;orthogonalLoop=1;jettySize=auto;html=1;rounded=0;endArrow=none;endFill=0;startArrow=block;startFill=0;exitX=0.458;exitY=1;exitDx=0;exitDy=0;exitPerimeter=0;" parent="WIyWlLk6GJQsqaUBKTNV-1" edge="1" source="uvJdbYq3CivriznMgJNv-3">
          <mxGeometry width="80" relative="1" as="geometry">
            <mxPoint x="480" y="195" as="sourcePoint" />
            <mxPoint x="480" y="200" as="targetPoint" />
            <Array as="points" />
          </mxGeometry>
        </mxCell>
      </root>
    </mxGraphModel>
  </diagram>
</mxfile>
